<?xml version="1.0" encoding="utf-8"?>
<!-- Generator: Adobe Illustrator 23.0.3, SVG Export Plug-In . SVG Version: 6.00 Build 0)  -->
<svg version="1.1" id="Shape_31_copy_1_" xmlns="http://www.w3.org/2000/svg" xmlns:xlink="http://www.w3.org/1999/xlink" x="0px"
	 y="0px" viewBox="0 0 369 352" style="enable-background:new 0 0 369 352;" xml:space="preserve">
<style type="text/css">
	.st0{fill:#FFD670;}
</style>
<g id="Shape_31_copy">
	<g>
		<path class="st0" d="M184.53,0C83.05,0,0.79,78.8,0.79,176c0,97.2,82.27,176,183.74,176c101.48,0,183.75-78.8,183.75-176
			C368.28,78.8,286.01,0,184.53,0z M184.53,346.38C86.29,346.38,6.65,270.1,6.65,176S86.29,5.62,184.53,5.62
			c98.24,0,177.88,76.28,177.88,170.38S282.77,346.38,184.53,346.38z M184.53,53.39c-70.7,0-128.01,54.89-128.01,122.61
			c0,67.72,57.31,122.61,128.01,122.61c70.7,0,128.01-54.89,128.01-122.61C312.54,108.28,255.23,53.39,184.53,53.39z"/>
	</g>
</g>
</svg>
