<?xml version="1.0" encoding="utf-8"?>
<!-- Generator: Adobe Illustrator 23.0.3, SVG Export Plug-In . SVG Version: 6.00 Build 0)  -->
<svg version="1.1" id="Forma_1_1_" xmlns="http://www.w3.org/2000/svg" xmlns:xlink="http://www.w3.org/1999/xlink" x="0px" y="0px"
	 viewBox="0 0 26 26" style="enable-background:new 0 0 26 26;" xml:space="preserve">
<style type="text/css">
	.st0{fill:#C4C0CF;}
</style>
<g id="Forma_1">
	<g>
		<path class="st0" d="M25.73,10.38c-0.17-0.83-0.43-1.66-0.76-2.44c-0.32-0.77-0.73-1.51-1.2-2.21c-0.47-0.69-1-1.34-1.59-1.92
			c-0.59-0.59-1.23-1.12-1.92-1.59c-0.7-0.47-1.44-0.87-2.21-1.2c-0.79-0.33-1.61-0.59-2.44-0.75C14.76,0.09,13.88,0,13,0
			c-0.88,0-1.76,0.09-2.62,0.27C9.55,0.43,8.73,0.69,7.94,1.02c-0.77,0.33-1.52,0.73-2.21,1.2c-0.69,0.47-1.33,1-1.92,1.59
			C3.22,4.4,2.69,5.04,2.22,5.73c-0.47,0.7-0.87,1.44-1.2,2.21c-0.33,0.78-0.59,1.61-0.76,2.44C0.09,11.24,0,12.12,0,13
			c0,0.88,0.09,1.77,0.27,2.62c0.17,0.84,0.42,1.66,0.76,2.45c0.33,0.77,0.73,1.51,1.2,2.21c0.46,0.69,1,1.33,1.58,1.92
			c0.59,0.59,1.24,1.12,1.92,1.58c0.69,0.47,1.44,0.87,2.21,1.2c0.79,0.33,1.61,0.59,2.44,0.76C11.24,25.91,12.12,26,13,26
			c0.88,0,1.76-0.09,2.62-0.26c0.84-0.17,1.66-0.42,2.44-0.76c0.77-0.33,1.51-0.73,2.21-1.2c0.69-0.46,1.34-1,1.92-1.58
			c0.59-0.59,1.12-1.23,1.59-1.92c0.47-0.69,0.87-1.44,1.2-2.21c0.33-0.79,0.59-1.61,0.76-2.45C25.91,14.76,26,13.88,26,13
			C26,12.12,25.91,11.24,25.73,10.38z M13,1.9c2.81,0,5.38,1.05,7.33,2.77c-0.03,0.04-1.61,2.45-5.8,4.02
			c-1.9-3.49-3.98-6.26-4.15-6.48C11.22,2.01,12.1,1.9,13,1.9z M10.34,2.22L10.34,2.22c0,0-0.02,0.01-0.03,0.01
			C10.31,2.23,10.33,2.22,10.34,2.22z M8.26,2.96c0.15,0.2,2.2,2.98,4.12,6.4c-5.33,1.42-9.96,1.36-10.25,1.36
			C2.86,7.27,5.17,4.42,8.26,2.96z M4.74,20.41C2.97,18.45,1.9,15.85,1.9,13c0-0.12,0.01-0.24,0.01-0.35c0.2,0,5.68,0.13,11.4-1.58
			c0.32,0.62,0.62,1.26,0.9,1.89c-0.15,0.04-0.29,0.08-0.44,0.13C7.78,15.02,4.74,20.41,4.74,20.41z M5.93,21.56
			c0.08,0.06,0.17,0.11,0.25,0.18c0,0.01-0.01,0.02-0.01,0.02S6.07,21.68,5.93,21.56z M13,24.1c-2.58,0-4.93-0.9-6.82-2.37
			c0.09-0.18,2.26-4.67,8.71-6.92c0.02-0.01,0.05-0.02,0.07-0.02c1.56,4.06,2.21,7.46,2.37,8.43C16,23.79,14.54,24.1,13,24.1z
			 M19.2,22.21c-0.11-0.67-0.7-3.93-2.16-7.93c3.58-0.57,6.69,0.41,6.92,0.49C23.47,17.86,21.69,20.52,19.2,22.21z M16.36,12.53
			c-0.08-0.19-0.16-0.38-0.24-0.57c-0.23-0.54-0.48-1.08-0.74-1.61c4.39-1.79,6.17-4.36,6.19-4.4c1.56,1.89,2.5,4.31,2.53,6.94
			C23.94,12.85,20.18,12.05,16.36,12.53z"/>
	</g>
</g>
</svg>
