<?xml version="1.0" encoding="utf-8"?>
<!-- Generator: Adobe Illustrator 23.0.3, SVG Export Plug-In . SVG Version: 6.00 Build 0)  -->
<svg version="1.1" xmlns="http://www.w3.org/2000/svg" xmlns:xlink="http://www.w3.org/1999/xlink" x="0px" y="0px"
	 viewBox="0 0 100 100" style="enable-background:new 0 0 100 100;" xml:space="preserve">
<style type="text/css">
	.st0{enable-background:new    ;}
	.st1{fill:#FFD670;}
	.st2{clip-path:url(#SVGID_2_);fill:#FED570;}
	.st3{clip-path:url(#SVGID_2_);fill:#FEFDFC;}
</style>
<g id="Ellipse_2_copy_1_" class="st0">
	<g id="Ellipse_2_copy">
		<g>
			<path class="st1" d="M50,2c26.47,0,48,21.53,48,48S76.47,98,50,98S2,76.47,2,50S23.53,2,50,2 M50,0C22.39,0,0,22.39,0,50
				c0,27.61,22.39,50,50,50c27.61,0,50-22.39,50-50C100,22.39,77.61,0,50,0L50,0z"/>
		</g>
	</g>
</g>
<g id="Ellipse_3_copy__x2B__Forma_1_2_" class="st0">
	<defs>
		
			<ellipse id="SVGID_1_" transform="matrix(0.9732 -0.2298 0.2298 0.9732 -10.15 12.8252)" class="st0" cx="50" cy="50" rx="35" ry="35"/>
	</defs>
	<clipPath id="SVGID_2_">
		<use xlink:href="#SVGID_1_"  style="overflow:visible;"/>
	</clipPath>
	<path class="st2" d="M23,86c-7,0-7,0-7-6.97c0-19.79,0.03-39.58-0.04-59.37c-0.01-2.5-0.11-3.83,3.36-3.79
		c21.12,0.25,42.24,0.25,63.36,0c3.47-0.04,3.37,1.28,3.36,3.79c-0.07,20.12-0.27,40.25,0.12,60.36c0.1,5.17-1.07,7.09-6.16,5.98
		c0.66-3.74-1.2-6.01-4.4-7.45c-4.25-1.9-8.63-3.53-12.75-5.68c-4.57-2.38-6.37-6.34-4.21-9.78c3.39-5.4,5.3-10.86,4.96-17.42
		c-0.25-4.88-1.67-8.38-6.04-10.46c-5.23-2.49-12.47-1.23-15.73,2.59c-2.82,3.31-3.56,14.72-1.19,18.32
		c7.11,10.77,5.96,14.45-5.94,19.2c-2.47,0.98-4.88,2.13-7.29,3.23C24.21,80,22.34,82.26,23,86z"/>
	<path class="st3" d="M23,86c-0.66-3.74,1.21-6,4.4-7.45c2.42-1.1,4.83-2.25,7.29-3.23c11.9-4.74,13.05-8.42,5.94-19.2
		c-2.38-3.6-1.64-15.01,1.19-18.32c3.27-3.83,10.51-5.08,15.73-2.59c4.37,2.08,5.79,5.58,6.04,10.46
		c0.34,6.56-1.57,12.02-4.96,17.42c-2.16,3.44-0.36,7.4,4.21,9.78c4.12,2.14,8.5,3.77,12.75,5.68c3.2,1.43,5.06,3.71,4.4,7.45
		C61,86,42,86,23,86z"/>
</g>
</svg>
