<?xml version="1.0" encoding="utf-8"?>
<!-- Generator: Adobe Illustrator 23.0.3, SVG Export Plug-In . SVG Version: 6.00 Build 0)  -->
<svg version="1.1" id="Forma_1_1_" xmlns="http://www.w3.org/2000/svg" xmlns:xlink="http://www.w3.org/1999/xlink" x="0px" y="0px"
	 viewBox="0 0 20 12" style="enable-background:new 0 0 20 12;" xml:space="preserve">
<style type="text/css">
	.st0{fill:#C4C0CF;}
</style>
<g id="Forma_1">
	<g>
		<path class="st0" d="M18.07,0.5h-5.01v1.2h5.01V0.5z M8.28,5.56C8.7,5.35,9.02,5.13,9.23,4.88C9.61,4.43,9.8,3.84,9.8,3.11
			c0-0.71-0.19-1.32-0.57-1.83C8.6,0.45,7.53,0.02,6.01,0H0v12h5.61c0.63,0,1.22-0.05,1.76-0.16c0.54-0.11,1.01-0.31,1.4-0.6
			c0.35-0.25,0.64-0.57,0.88-0.94c0.37-0.56,0.55-1.2,0.55-1.91c0-0.69-0.16-1.28-0.49-1.76C9.4,6.14,8.91,5.78,8.28,5.56z
			 M2.87,2.08h2.32c0.6,0,1.09,0.06,1.47,0.19C7.1,2.45,7.33,2.82,7.33,3.38c0,0.51-0.17,0.86-0.5,1.06c-0.34,0.2-0.77,0.3-1.32,0.3
			H2.87V2.08z M6.76,9.7C6.46,9.85,6.04,9.92,5.5,9.92H2.87v-3.2h2.67c0.53,0.01,0.95,0.07,1.24,0.2c0.53,0.23,0.79,0.66,0.79,1.29
			C7.58,8.95,7.31,9.44,6.76,9.7z M19.93,6.25c-0.11-0.67-0.35-1.27-0.71-1.78c-0.4-0.58-0.92-1-1.54-1.27
			c-0.62-0.27-1.32-0.4-2.1-0.4c-1.31,0-2.37,0.4-3.19,1.19c-0.82,0.79-1.23,1.94-1.23,3.43c0,1.59,0.45,2.74,1.36,3.44
			c0.91,0.7,1.95,1.06,3.14,1.06c1.44,0,2.56-0.42,3.35-1.25c0.51-0.53,0.8-1.04,0.86-1.55H17.5c-0.14,0.25-0.3,0.45-0.48,0.59
			c-0.33,0.27-0.76,0.39-1.29,0.39c-0.5,0-0.93-0.11-1.29-0.32c-0.59-0.35-0.9-0.95-0.93-1.81H20C20.01,7.22,19.99,6.65,19.93,6.25z
			 M13.57,6.48c0.08-0.56,0.29-1.01,0.62-1.33c0.33-0.33,0.79-0.49,1.39-0.49c0.55,0,1.01,0.16,1.38,0.47
			c0.37,0.31,0.58,0.76,0.62,1.36H13.57z"/>
	</g>
</g>
</svg>
