<?xml version="1.0" encoding="utf-8"?>
<!-- Generator: Adobe Illustrator 23.0.3, SVG Export Plug-In . SVG Version: 6.00 Build 0)  -->
<svg version="1.1" xmlns="http://www.w3.org/2000/svg" xmlns:xlink="http://www.w3.org/1999/xlink" x="0px" y="0px"
	 viewBox="0 0 65 65" style="enable-background:new 0 0 65 65;" xml:space="preserve">
<style type="text/css">
	.st0{enable-background:new    ;}
	.st1{fill:#FFD670;}
	.st2{fill-rule:evenodd;clip-rule:evenodd;fill:#FFD670;}
</style>
<g id="Shape_73_copy_1_" class="st0">
	<g id="Shape_73_copy">
		<g>
			<path class="st1" d="M32.5,0C14.58,0,0,14.58,0,32.5S14.58,65,32.5,65C50.42,65,65,50.42,65,32.5S50.42,0,32.5,0z M32.5,62.4
				c-16.49,0-29.9-13.41-29.9-29.9S16.01,2.6,32.5,2.6c16.49,0,29.9,13.41,29.9,29.9S48.99,62.4,32.5,62.4z"/>
		</g>
	</g>
</g>
<g id="Forma_1_1_" class="st0">
	<g id="Forma_1">
		<g>
			<path class="st2" d="M33.5,36.3l-3.34-2.88l-9.55,8.07C20.96,41.8,21.42,42,21.94,42h23.12c0.51,0,0.98-0.2,1.33-0.52l-9.54-8.07
				L33.5,36.3z M46.39,23.51C46.04,23.2,45.58,23,45.06,23H21.94c-0.51,0-0.98,0.2-1.33,0.52L33.5,34.4L46.39,23.51z M20,24.67
				v15.78l9.32-7.8L20,24.67z M37.68,32.65l9.32,7.8V24.66L37.68,32.65z"/>
		</g>
	</g>
</g>
</svg>
