<?xml version="1.0" encoding="utf-8"?>
<!-- Generator: Adobe Illustrator 23.0.3, SVG Export Plug-In . SVG Version: 6.00 Build 0)  -->
<svg version="1.1" id="Forma_1_1_" xmlns="http://www.w3.org/2000/svg" xmlns:xlink="http://www.w3.org/1999/xlink" x="0px" y="0px"
	 viewBox="0 0 24 19" style="enable-background:new 0 0 24 19;" xml:space="preserve">
<style type="text/css">
	.st0{fill:#C4C0CF;}
</style>
<g id="Forma_1">
	<g>
		<path class="st0" d="M24,2.25C23.12,2.63,22.17,2.89,21.17,3c1.02-0.59,1.8-1.54,2.16-2.65c-0.95,0.55-2.01,0.95-3.13,1.16
			C19.31,0.58,18.03,0,16.62,0c-2.72,0-4.92,2.15-4.92,4.8c0,0.38,0.04,0.74,0.13,1.09C7.73,5.69,4.1,3.78,1.67,0.88
			C1.25,1.58,1.01,2.41,1.01,3.29c0,1.66,0.87,3.13,2.19,3.99c-0.81-0.03-1.57-0.24-2.23-0.6v0.06c0,2.32,1.7,4.26,3.95,4.7
			c-0.41,0.11-0.85,0.17-1.3,0.17c-0.32,0-0.63-0.03-0.93-0.09c0.63,1.91,2.44,3.29,4.6,3.33c-1.68,1.29-3.81,2.05-6.11,2.05
			c-0.4,0-0.79-0.02-1.17-0.07C2.18,18.2,4.77,19,7.55,19c9.06,0,14.01-7.31,14.01-13.65l-0.02-0.62C22.5,4.05,23.34,3.21,24,2.25z"
			/>
	</g>
</g>
</svg>
