<?xml version="1.0" encoding="utf-8"?>
<!-- Generator: Adobe Illustrator 23.0.3, SVG Export Plug-In . SVG Version: 6.00 Build 0)  -->
<svg version="1.1" xmlns="http://www.w3.org/2000/svg" xmlns:xlink="http://www.w3.org/1999/xlink" x="0px" y="0px"
	 viewBox="0 0 65 65" style="enable-background:new 0 0 65 65;" xml:space="preserve">
<style type="text/css">
	.st0{enable-background:new    ;}
	.st1{fill:#FFD670;}
</style>
<g id="Shape_73_1_" class="st0">
	<g id="Shape_73">
		<g>
			<path class="st1" d="M32.5,0C14.58,0,0,14.58,0,32.5S14.58,65,32.5,65C50.42,65,65,50.42,65,32.5S50.42,0,32.5,0z M32.5,62.4
				c-16.49,0-29.9-13.41-29.9-29.9S16.01,2.6,32.5,2.6c16.49,0,29.9,13.41,29.9,29.9S48.99,62.4,32.5,62.4z"/>
		</g>
	</g>
</g>
<g id="Forma_1_1_" class="st0">
	<g id="Forma_1">
		<g>
			<path class="st1" d="M49.03,23.52c0.01,0,0.02,0,0.02,0s-0.08-0.23-0.26-0.58c-0.01-0.03-0.03-0.06-0.04-0.08
				c-0.03-0.06-0.07-0.13-0.11-0.2c-0.02-0.04-0.04-0.08-0.07-0.12h0c-1.48-2.47-6.75-7.86-20.88,4.75
				c-13.41,11.96-5.99,17.33-4.83,18.05c1.78,1.4,3.79,1.14,4.69-0.46l1.82-2.92c0.92-1.64,0.21-4.2-1.6-5.72l-0.34-0.29
				c3.43-5.17,7.62-8.19,11.39-9.96l0.1,0.16c1.22,2.02,3.64,3.12,5.4,2.46l3.38-1.1C49.18,26.96,49.61,25.22,49.03,23.52z"/>
		</g>
	</g>
</g>
</svg>
